<svg width="342" height="266" xmlns="http://www.w3.org/2000/svg" xmlns:xlink="http://www.w3.org/1999/xlink" xml:space="preserve" overflow="hidden"><g transform="translate(-877 -2073)"><rect x="894.5" y="2100.5" width="304" height="211" stroke="#042433" stroke-width="4.58333" stroke-miterlimit="8" fill="#156082"/><path d="M1068.53 2154.56 1181.02 2077.92 1212.92 2124.74 1100.43 2201.38Z" stroke="#042433" stroke-width="4.58333" stroke-miterlimit="8" fill="#262626" fill-rule="evenodd"/><path d="M1183.4 2334.91 1068.53 2257.37 1100.22 2210.41 1215.1 2287.95Z" stroke="#042433" stroke-width="4.58333" stroke-miterlimit="8" fill="#262626" fill-rule="evenodd"/><path d="M882.194 2287.06 994.689 2210.41 1026.59 2257.23 914.094 2333.88Z" stroke="#042433" stroke-width="4.58333" stroke-miterlimit="8" fill="#262626" fill-rule="evenodd"/><path d="M995.982 2201.38 881.104 2123.84 912.799 2076.89 1027.68 2154.43Z" stroke="#042433" stroke-width="4.58333" stroke-miterlimit="8" fill="#262626" fill-rule="evenodd"/><g><g><g><path d="M1036.96 2259.98 1049.56 2217.58 1030.08 2217.58 1039.73 2166.3 1068.56 2166.3 1056.44 2203.83 1075.92 2203.83 1036.96 2259.98Z" fill="#FFC000"/></g></g></g><path d="M980.5 2095.33C980.5 2093.77 981.768 2092.5 983.333 2092.5L1113.67 2092.5C1115.23 2092.5 1116.5 2093.77 1116.5 2095.33L1116.5 2106.67C1116.5 2108.23 1115.23 2109.5 1113.67 2109.5L983.333 2109.5C981.768 2109.5 980.5 2108.23 980.5 2106.67Z" stroke="#042433" stroke-width="4.58333" stroke-miterlimit="8" fill="#262626" fill-rule="evenodd"/><path d="M980.5 2302.33C980.5 2300.77 981.768 2299.5 983.333 2299.5L1113.67 2299.5C1115.23 2299.5 1116.5 2300.77 1116.5 2302.33L1116.5 2313.67C1116.5 2315.23 1115.23 2316.5 1113.67 2316.5L983.333 2316.5C981.768 2316.5 980.5 2315.23 980.5 2313.67Z" stroke="#042433" stroke-width="4.58333" stroke-miterlimit="8" fill="#262626" fill-rule="evenodd"/></g></svg>