<svg width="757" height="758" xmlns="http://www.w3.org/2000/svg" xmlns:xlink="http://www.w3.org/1999/xlink" xml:space="preserve" overflow="hidden"><g transform="translate(-1234 -1470)"><path d="M1237.5 1849C1237.5 1641.62 1405.39 1473.5 1612.5 1473.5 1819.61 1473.5 1987.5 1641.62 1987.5 1849 1987.5 2056.38 1819.61 2224.5 1612.5 2224.5 1405.39 2224.5 1237.5 2056.38 1237.5 1849Z" stroke="#E97132" stroke-width="6.875" stroke-miterlimit="8" fill="#E97132" fill-rule="evenodd" fill-opacity="0.2"/><rect x="1565.5" y="1808.5" width="85.9999" height="85.9999" stroke="#042433" stroke-width="6.875" stroke-miterlimit="8"/><path d="M1622.5 1812C1622.5 1796.26 1635.04 1783.5 1650.5 1783.5 1665.96 1783.5 1678.5 1796.26 1678.5 1812 1678.5 1827.74 1665.96 1840.5 1650.5 1840.5 1635.04 1840.5 1622.5 1827.74 1622.5 1812Z" stroke="#000000" stroke-width="6.875" stroke-miterlimit="8" fill="#FFFFFF" fill-rule="evenodd"/><path d="M1622.5 1886C1622.5 1870.26 1635.04 1857.5 1650.5 1857.5 1665.96 1857.5 1678.5 1870.26 1678.5 1886 1678.5 1901.74 1665.96 1914.5 1650.5 1914.5 1635.04 1914.5 1622.5 1901.74 1622.5 1886Z" stroke="#000000" stroke-width="6.875" stroke-miterlimit="8" fill="#FFFFFF" fill-rule="evenodd"/><path d="M1543.5 1886C1543.5 1870.26 1556.04 1857.5 1571.5 1857.5 1586.96 1857.5 1599.5 1870.26 1599.5 1886 1599.5 1901.74 1586.96 1914.5 1571.5 1914.5 1556.04 1914.5 1543.5 1901.74 1543.5 1886Z" stroke="#000000" stroke-width="6.875" stroke-miterlimit="8" fill="#FFFFFF" fill-rule="evenodd"/><path d="M1543.5 1812.5C1543.5 1797.04 1556.04 1784.5 1571.5 1784.5 1586.96 1784.5 1599.5 1797.04 1599.5 1812.5 1599.5 1827.96 1586.96 1840.5 1571.5 1840.5 1556.04 1840.5 1543.5 1827.96 1543.5 1812.5Z" stroke="#000000" stroke-width="6.875" stroke-miterlimit="8" fill="#FFFFFF" fill-rule="evenodd"/></g></svg>