<svg width="283" height="284" xmlns="http://www.w3.org/2000/svg" xmlns:xlink="http://www.w3.org/1999/xlink" xml:space="preserve" overflow="hidden"><g transform="translate(-2427 -1655)">
<rect x="2523.5" y="1756.5" width="86" height="87" stroke="#042433" stroke-width="6.875" stroke-miterlimit="8"/>
<path d="M2580.5 1760.5C2580.5 1745.04 2593.26 1732.5 2609 1732.5 2624.74 1732.5 2637.5 1745.04 2637.5 1760.5 2637.5 1775.96 2624.74 1788.5 2609 1788.5 2593.26 1788.5 2580.5 1775.96 2580.5 1760.5Z" stroke="#000000" stroke-width="6.875" stroke-miterlimit="8" fill="#FFFFFF" fill-rule="evenodd"/>
<path d="M2580.5 1834C2580.5 1818.26 2593.26 1805.5 2609 1805.5 2624.74 1805.5 2637.5 1818.26 2637.5 1834 2637.5 1849.74 2624.74 1862.5 2609 1862.5 2593.26 1862.5 2580.5 1849.74 2580.5 1834Z" stroke="#000000" stroke-width="6.875" stroke-miterlimit="8" fill="#FFFFFF" fill-rule="evenodd"/>
<path d="M2501.5 1834C2501.5 1818.26 2514.26 1805.5 2530 1805.5 2545.74 1805.5 2558.5 1818.26 2558.5 1834 2558.5 1849.74 2545.74 1862.5 2530 1862.5 2514.26 1862.5 2501.5 1849.74 2501.5 1834Z" stroke="#000000" stroke-width="6.875" stroke-miterlimit="8" fill="#FFFFFF" fill-rule="evenodd"/><path d="M2501.5 1761C2501.5 1745.26 2514.26 1732.5 2530 1732.5 2545.74 1732.5 2558.5 1745.26 2558.5 1761 2558.5 1776.74 2545.74 1789.5 2530 1789.5 2514.26 1789.5 2501.5 1776.74 2501.5 1761Z" stroke="#000000" stroke-width="6.875" stroke-miterlimit="8" fill="#FFFFFF" fill-rule="evenodd"/></g></svg>