<svg width="734" height="459" xmlns="http://www.w3.org/2000/svg" xmlns:xlink="http://www.w3.org/1999/xlink" xml:space="preserve" overflow="hidden"><defs><linearGradient x1="857" y1="1311.5" x2="857" y2="1705.5" gradientUnits="userSpaceOnUse" spreadMethod="reflect" id="fill0"><stop offset="0" stop-color="#0E2841"/><stop offset="0.14" stop-color="#156082"/><stop offset="0.34" stop-color="#46B1E1"/><stop offset="0.59" stop-color="#46B1E1"/><stop offset="0.83" stop-color="#156082"/><stop offset="1" stop-color="#0E2841"/></linearGradient></defs><g transform="translate(-506 -1277)"><path d="M1031.5 1290.17C1031.5 1284.28 1036.28 1279.5 1042.17 1279.5L1085.83 1279.5C1091.72 1279.5 1096.5 1284.28 1096.5 1290.17L1096.5 1332.83C1096.5 1338.72 1091.72 1343.5 1085.83 1343.5L1042.17 1343.5C1036.28 1343.5 1031.5 1338.72 1031.5 1332.83Z" stroke="#042433" stroke-width="4.58333" stroke-miterlimit="8" fill="#156082" fill-rule="evenodd"/><path d="M1031.5 1681C1031.5 1675.2 1036.2 1670.5 1042 1670.5L1086 1670.5C1091.8 1670.5 1096.5 1675.2 1096.5 1681L1096.5 1723C1096.5 1728.8 1091.8 1733.5 1086 1733.5L1042 1733.5C1036.2 1733.5 1031.5 1728.8 1031.5 1723Z" stroke="#042433" stroke-width="4.58333" stroke-miterlimit="8" fill="#156082" fill-rule="evenodd"/><path d="M602.5 1681C602.5 1675.2 607.201 1670.5 613 1670.5L657 1670.5C662.799 1670.5 667.5 1675.2 667.5 1681L667.5 1723C667.5 1728.8 662.799 1733.5 657 1733.5L613 1733.5C607.201 1733.5 602.5 1728.8 602.5 1723Z" stroke="#042433" stroke-width="4.58333" stroke-miterlimit="8" fill="#156082" fill-rule="evenodd"/><path d="M600.5 1290.17C600.5 1284.28 605.276 1279.5 611.167 1279.5L654.833 1279.5C660.724 1279.5 665.5 1284.28 665.5 1290.17L665.5 1332.83C665.5 1338.72 660.724 1343.5 654.833 1343.5L611.167 1343.5C605.276 1343.5 600.5 1338.72 600.5 1332.83Z" stroke="#042433" stroke-width="4.58333" stroke-miterlimit="8" fill="#156082" fill-rule="evenodd"/><path d="M545.5 1451.5C545.5 1448.19 548.186 1445.5 551.5 1445.5L575.5 1445.5C578.814 1445.5 581.5 1448.19 581.5 1451.5L581.5 1567.5C581.5 1570.81 578.814 1573.5 575.5 1573.5L551.5 1573.5C548.186 1573.5 545.5 1570.81 545.5 1567.5Z" stroke="#042433" stroke-width="4.58333" stroke-miterlimit="8" fill="#156082" fill-rule="evenodd"/><path d="M644.168 1705.5C607.901 1705.5 578.5 1676.1 578.5 1639.83L578.5 1377.17C578.5 1340.9 607.901 1311.5 644.168 1311.5L1069.83 1311.5C1106.1 1311.5 1135.5 1340.9 1135.5 1377.17L1135.5 1639.83C1135.5 1676.1 1106.1 1705.5 1069.83 1705.5Z" stroke="#042433" stroke-width="4.58333" stroke-miterlimit="8" fill="url(#fill0)" fill-rule="evenodd"/><path d="M642 1561C606.653 1561 578 1532.35 578 1497 578 1461.65 606.653 1433 642 1433 677.346 1433 706 1461.65 706 1497 706 1532.35 677.346 1561 642 1561Z" stroke="#000000" stroke-width="13.75" stroke-miterlimit="8" fill="#104862" fill-rule="evenodd"/><path d="M578 1497 706.293 1497" stroke="#000000" stroke-width="13.75" stroke-miterlimit="8" fill="#104862" fill-rule="evenodd"/><path d="M642 1561.29 642 1433" stroke="#000000" stroke-width="13.75" stroke-miterlimit="8" fill="#104862" fill-rule="evenodd"/><path d="M508.5 1479.5C508.5 1476.19 511.186 1473.5 514.5 1473.5L538.5 1473.5C541.814 1473.5 544.5 1476.19 544.5 1479.5L544.5 1542.5C544.5 1545.81 541.814 1548.5 538.5 1548.5L514.5 1548.5C511.186 1548.5 508.5 1545.81 508.5 1542.5Z" stroke="#042433" stroke-width="4.58333" stroke-miterlimit="8" fill="#156082" fill-rule="evenodd"/><text fill="#FFFFFF" font-family="Aptos,Aptos_MSFontService,sans-serif" font-weight="400" font-size="83" transform="matrix(1 0 0 1 769.087 1528)">Product</text></g></svg>