<svg width="283" height="284" xmlns="http://www.w3.org/2000/svg" xmlns:xlink="http://www.w3.org/1999/xlink" xml:space="preserve" overflow="hidden"><g transform="translate(-3188 -1655)"><path d="M3191.5 1797C3191.5 1720.51 3253.28 1658.5 3329.5 1658.5 3405.72 1658.5 3467.5 1720.51 3467.5 1797 3467.5 1873.49 3405.72 1935.5 3329.5 1935.5 3253.28 1935.5 3191.5 1873.49 3191.5 1797Z" stroke="#4EA72E" stroke-width="6.875" stroke-miterlimit="8" fill="#F2F2F2" fill-rule="evenodd" fill-opacity="0.2"/><rect x="3284.5" y="1756.5" width="86" height="87" stroke="#042433" stroke-width="6.875" stroke-miterlimit="8"/><path d="M3341.5 1760.5C3341.5 1745.04 3354.26 1732.5 3370 1732.5 3385.74 1732.5 3398.5 1745.04 3398.5 1760.5 3398.5 1775.96 3385.74 1788.5 3370 1788.5 3354.26 1788.5 3341.5 1775.96 3341.5 1760.5Z" stroke="#000000" stroke-width="6.875" stroke-miterlimit="8" fill="#FFFFFF" fill-rule="evenodd"/><path d="M3341.5 1834C3341.5 1818.26 3354.26 1805.5 3370 1805.5 3385.74 1805.5 3398.5 1818.26 3398.5 1834 3398.5 1849.74 3385.74 1862.5 3370 1862.5 3354.26 1862.5 3341.5 1849.74 3341.5 1834Z" stroke="#000000" stroke-width="6.875" stroke-miterlimit="8" fill="#FFFFFF" fill-rule="evenodd"/><path d="M3262.5 1834C3262.5 1818.26 3275.26 1805.5 3291 1805.5 3306.74 1805.5 3319.5 1818.26 3319.5 1834 3319.5 1849.74 3306.74 1862.5 3291 1862.5 3275.26 1862.5 3262.5 1849.74 3262.5 1834Z" stroke="#000000" stroke-width="6.875" stroke-miterlimit="8" fill="#FFFFFF" fill-rule="evenodd"/><path d="M3262.5 1761C3262.5 1745.26 3275.26 1732.5 3291 1732.5 3306.74 1732.5 3319.5 1745.26 3319.5 1761 3319.5 1776.74 3306.74 1789.5 3291 1789.5 3275.26 1789.5 3262.5 1776.74 3262.5 1761Z" stroke="#000000" stroke-width="6.875" stroke-miterlimit="8" fill="#FFFFFF" fill-rule="evenodd"/></g></svg>