<svg width="191" height="227" xmlns="http://www.w3.org/2000/svg" xmlns:xlink="http://www.w3.org/1999/xlink" xml:space="preserve" overflow="hidden"><g transform="translate(-663 -344)"><path d="M677.5 374C677.5 358.812 689.812 346.5 705 346.5L815 346.5C830.188 346.5 842.5 358.812 842.5 374L842.5 541C842.5 556.188 830.188 568.5 815 568.5L705 568.5C689.812 568.5 677.5 556.188 677.5 541Z" stroke="#042433" stroke-width="4.58333" stroke-miterlimit="8" fill-rule="evenodd"/><g><g><g><path d="M95 19.7917C95 19.7917 45.5209 89.4584 45.5209 120.729 45.5209 148.042 67.6875 170.208 95 170.208 122.313 170.208 144.479 148.042 144.479 120.729 144.479 89.2605 95 19.7917 95 19.7917Z" fill="#4EA72E" transform="matrix(1.00526 0 0 1 663 359)"/></g></g></g></g></svg>